<svg width="40" height="40" viewBox="0 0 40 40" fill="none" xmlns="http://www.w3.org/2000/svg">
<path d="M20.1834 39.8442C31.1281 39.7581 39.9186 30.8038 39.8174 19.8442C39.7163 8.88462 30.7618 0.0699484 19.8171 0.156072C8.87244 0.242195 0.0819986 9.1965 0.183149 20.1561C0.284299 31.1156 9.23873 39.9303 20.1834 39.8442Z" fill="#626385"/>
<path d="M23.3977 11.8186C23.3977 12.7369 23.3977 13.6114 23.4413 14.5297C23.223 14.5297 23.0047 14.5297 22.83 14.5297C22.437 14.5297 22.0876 14.5297 21.6946 14.5297C21.258 14.5297 20.996 14.7483 20.996 15.1856C20.996 15.7978 20.996 16.3662 20.996 16.9784C21.8256 16.9784 22.6553 16.9784 23.5287 16.9784C23.4413 17.9404 23.354 18.8587 23.2667 19.8207C22.5243 19.8207 21.782 19.8207 21.0396 19.8207C21.0833 22.488 21.0833 25.1554 21.127 27.8227C20.0353 27.8227 18.8999 27.8227 17.8082 27.8664C17.7646 25.1991 17.7646 22.5755 17.7209 19.9081C17.1969 19.9081 16.6729 19.9081 16.1489 19.9081C16.1489 18.9461 16.1489 18.0278 16.1052 17.0659C16.6292 17.0659 17.1532 17.0659 17.6772 17.0659C17.6772 16.9784 17.6772 16.8909 17.6772 16.8472C17.6772 16.1913 17.6336 15.5354 17.6772 14.8795C17.7646 13.83 18.1576 12.9118 19.1183 12.3433C19.5986 12.0372 20.1663 11.9061 20.734 11.9061C21.6073 11.8623 22.4806 11.9061 23.354 11.8623C23.354 11.8186 23.354 11.8186 23.3977 11.8186Z" fill="white"/>
</svg>
