<svg width="60" height="60" viewBox="0 0 60 60" fill="none" xmlns="http://www.w3.org/2000/svg">
<circle cx="30" cy="30" r="29" stroke="#626385" stroke-width="2"/>
<path d="M30.0248 45C29.6591 45 29.2941 44.8607 29.0148 44.5815L19.4184 34.985C18.8605 34.4272 18.8605 33.5229 19.4184 32.965C19.9763 32.4072 20.8805 32.4072 21.4384 32.965L31.0348 42.5615C31.5927 43.1193 31.5927 44.0236 31.0348 44.5815C30.7555 44.8607 30.3905 45 30.0248 45Z" fill="#626385"/>
<path d="M30.0248 45C29.6591 45 29.2941 44.8607 29.0148 44.5815C28.457 44.0236 28.457 43.1193 29.0148 42.5615L38.6113 32.965C39.1691 32.4072 40.0734 32.4072 40.6313 32.965C41.1891 33.5229 41.1891 34.4272 40.6313 34.985L31.0348 44.5815C30.7555 44.8607 30.3905 45 30.0248 45Z" fill="#626385"/>
<path d="M30.0248 45C29.2363 45 28.5963 44.36 28.5963 43.5714V16.4286C28.5963 15.64 29.2363 15 30.0248 15C30.8134 15 31.4534 15.64 31.4534 16.4286V43.5714C31.4534 44.36 30.8134 45 30.0248 45Z" fill="#626385"/>
</svg>
