<svg width="27" height="18" viewBox="0 0 27 18" fill="none" xmlns="http://www.w3.org/2000/svg">
<path d="M22.2217 6.69033L26.6416 5.10887L24.9791 4.21677L24.2897 2.51367L22.2217 6.69033Z" fill="#626385"/>
<path d="M8.06954 10.34C7.62349 9.81281 6.9747 10.0967 6.52864 10.2589H6.48809C5.92039 10.5022 5.31214 10.5022 4.74444 10.2589H4.70389C4.25784 10.0967 3.60904 9.81281 3.16299 10.34C2.96024 10.5427 2.87913 10.8266 2.91968 11.0699C3.00078 11.4754 3.40628 11.8809 3.93344 12.1242C4.46059 12.3269 5.02829 12.4486 5.59599 12.4486C6.16369 12.4486 6.73139 12.3269 7.25854 12.1242C7.82624 11.8809 8.19119 11.4754 8.27229 11.0699C8.35339 10.786 8.27229 10.5427 8.06954 10.34ZM7.98844 11.0293C7.90734 11.3537 7.58295 11.6781 7.1369 11.8809C6.16369 12.2864 5.02829 12.2864 4.05509 11.8809C3.60904 11.6781 3.28463 11.3537 3.20353 11.0293C3.16298 10.8671 3.20354 10.7049 3.36574 10.5427C3.48739 10.3805 3.64958 10.34 3.81178 10.34C4.01453 10.34 4.29839 10.4211 4.58224 10.5427H4.62279C5.23104 10.786 5.96094 10.786 6.56919 10.5427H6.60974C7.13689 10.34 7.5424 10.2183 7.82625 10.5427C7.9479 10.6644 8.02899 10.8266 7.98844 11.0293Z" fill="#626385"/>
<path d="M7.21794 10.8266C5.23098 12.1242 3.93338 10.9077 3.89283 10.8266C3.85228 10.7861 3.73063 10.7861 3.69008 10.8266C3.64953 10.8672 3.64953 10.9888 3.69008 11.0294C3.69008 11.0294 4.37943 11.6782 5.47428 11.6782C6.04198 11.6782 6.69079 11.516 7.42069 11.0294C7.50179 10.9888 7.50178 10.9077 7.46123 10.8266C7.38013 10.7861 7.29904 10.7455 7.21794 10.8266Z" fill="#626385"/>
<path d="M25.3438 15.3685V12.9355C25.3438 10.543 24.6545 8.23166 23.3569 6.24471C23.2352 6.04196 23.073 5.79867 22.8702 5.55537C20.7616 2.79796 17.5987 1.09485 14.152 0.811002V0H12.3272V0.811002C9.44817 1.01375 6.73131 2.27081 4.66326 4.29831C4.01446 3.77116 3.16291 3.52786 2.23025 3.73061C0.932652 4.01446 0 5.19041 0 6.52857C0 7.70452 0.68935 8.67772 1.7031 9.12377C1.2976 10.3403 1.09485 11.5973 1.09485 12.8949V15.3279H0.324402V17.1527H2.14916V16.4633H8.92102V17.2338H10.7458V15.409H9.97532V12.9355C9.97532 11.5162 10.908 10.2997 12.2461 9.89422V10.543H14.0709V9.93477C14.5575 10.097 15.0441 10.3403 15.409 10.7052C16.0173 11.3135 16.3417 12.1245 16.3417 12.976V15.4496H15.5712V17.2743H17.396V16.4633H24.1679V17.1932H25.9926V15.3685H25.3438ZM12.6111 0.364948H13.8276V1.58145H12.6111V0.364948ZM2.83851 4.05501C4.21721 4.05501 5.35261 5.19042 5.35261 6.56912C5.35261 7.42067 4.94711 8.19111 4.25776 8.67772L2.31135 4.13611C2.5141 4.05501 2.67631 4.05501 2.83851 4.05501ZM1.86531 16.9094H0.648804V15.6929H1.86531V16.9094ZM10.4619 16.9499H9.24542V15.7334H10.4619V16.9499ZM13.8276 10.2186H12.6111V9.00212H13.8276V10.2186ZM17.1932 16.9499H15.9767V15.7334H17.1932V16.9499ZM17.4771 16.1795V15.409H16.7066V12.9355C16.7066 12.0028 16.3417 11.1107 15.6929 10.4619C15.2468 10.0159 14.7197 9.73202 14.152 9.56982V8.67772H12.3272V9.56982C10.7863 9.97532 9.77257 11.354 9.77257 12.9355V15.409H8.92102V16.1795H2.14916V15.3685H1.3787V12.9355C1.3787 11.6784 1.58145 10.4619 1.94641 9.28597C2.23026 9.36707 2.51411 9.40762 2.83851 9.40762C3.40621 9.40762 3.93336 9.24542 4.41996 8.92102C4.98766 8.55607 5.39316 7.94782 5.59591 7.33957C5.92031 8.51552 7.05572 9.40762 8.35332 9.40762C8.92102 9.40762 9.44817 9.24542 9.93477 8.92102C10.7458 8.39387 11.2324 7.50177 11.2324 6.52857C11.2324 4.74436 9.56982 3.32511 7.74507 3.73061C6.69077 3.97391 5.92031 4.74436 5.63646 5.71756C5.51481 5.23096 5.27151 4.82546 4.90656 4.50106C6.89352 2.51411 9.52927 1.29761 12.3272 1.09486V1.82475H14.152V1.09486C17.5176 1.33816 20.5994 3.04126 22.627 5.71756C22.8297 5.96086 22.9514 6.16362 23.1136 6.36637C24.4112 8.31277 25.06 10.543 25.06 12.8544V15.2874H24.2895V16.0984H17.4771V16.1795ZM7.82617 4.09556C7.98837 4.05501 8.19112 4.05501 8.35332 4.05501C9.73202 4.05501 10.8674 5.19042 10.8674 6.56912C10.8674 7.42067 10.4619 8.19111 9.77257 8.67772L7.82617 4.09556ZM25.7899 16.9094H24.5734V15.6929H25.7899V16.9094Z" fill="#626385"/>
</svg>
