<svg width="40" height="40" viewBox="0 0 40 40" fill="none" xmlns="http://www.w3.org/2000/svg">
<path d="M20 40C31.0457 40 40 31.0457 40 20C40 8.9543 31.0457 0 20 0C8.9543 0 0 8.9543 0 20C0 31.0457 8.9543 40 20 40Z" fill="#626385"/>
<path d="M30.9998 13.1309C30.1816 13.4923 29.3099 13.7318 28.401 13.8482C29.336 13.286 30.0496 12.4026 30.3851 11.3378C29.5134 11.8612 28.5509 12.2309 27.5251 12.4372C26.6974 11.5497 25.5176 11 24.2306 11C21.7336 11 19.7234 13.0409 19.7234 15.5429C19.7234 15.9029 19.7536 16.2491 19.8279 16.5786C16.0783 16.3945 12.7604 14.5848 10.5315 11.828C10.1424 12.5078 9.91413 13.286 9.91413 14.1237C9.91413 15.6966 10.7185 17.0909 11.9175 17.8982C11.1929 17.8843 10.482 17.6725 9.87976 17.3388C9.87976 17.3526 9.87976 17.3706 9.87976 17.3886C9.87976 19.5957 11.4431 21.4289 13.4933 21.8512C13.1261 21.9523 12.726 22.0008 12.3108 22.0008C12.022 22.0008 11.7305 21.9842 11.4569 21.9232C12.0413 23.7218 13.6995 25.0442 15.6713 25.0871C14.1368 26.2958 12.1884 27.0242 10.0791 27.0242C9.70926 27.0242 9.35451 27.0075 8.99976 26.9618C10.9976 28.2592 13.3654 29 15.9188 29C24.2183 29 28.7558 22.0769 28.7558 16.076C28.7558 15.8752 28.7489 15.6814 28.7393 15.4889C29.6344 14.8492 30.3865 14.0503 30.9998 13.1309Z" fill="white"/>
</svg>
