<svg width="40" height="40" viewBox="0 0 40 40" fill="none" xmlns="http://www.w3.org/2000/svg">
<path d="M20 40C31.0457 40 40 31.0457 40 20C40 8.9543 31.0457 0 20 0C8.9543 0 0 8.9543 0 20C0 31.0457 8.9543 40 20 40Z" fill="#626385"/>
<path d="M20.8195 17.7603C21.2617 17.1248 21.7924 16.6894 22.4529 16.4161C22.9405 16.2141 23.4521 16.1081 23.9763 16.0743C24.7879 16.0221 25.591 16.0579 26.3703 16.3308C27.3468 16.6731 28.0495 17.3161 28.5069 18.236C28.9511 19.1292 29.1595 20.0841 29.175 21.0721C29.2124 23.4573 29.2252 25.8433 29.2415 28.2289C29.2451 28.7313 28.9826 28.9898 28.4818 28.9934C27.5993 28.9998 26.7169 28.9994 25.8349 28.9934C25.3225 28.9902 25.0899 28.744 25.0899 28.2297C25.0899 26.2807 25.093 24.3318 25.0879 22.3828C25.0867 21.8653 25.0209 21.3554 24.8628 20.8574C24.6142 20.0757 24.0078 19.6176 23.1863 19.5722C22.0366 19.5084 21.386 20.1184 21.0454 21.1203C20.8729 21.6275 20.8127 22.1466 20.8155 22.6824C20.8258 24.5318 20.8199 26.3815 20.8195 28.2313C20.8195 28.7273 20.5625 28.991 20.0617 28.9938C19.2127 28.9986 18.3634 28.9994 17.5144 28.9934C17.008 28.9898 16.7407 28.7173 16.7407 28.2141C16.7395 24.4752 16.7427 20.7363 16.7363 16.9973C16.7355 16.597 17.0048 16.232 17.4889 16.246C18.3705 16.2711 19.2534 16.2524 20.1358 16.2535C20.5617 16.2543 20.8155 16.5065 20.8191 16.93C20.8211 17.1874 20.8195 17.4447 20.8195 17.7603Z" fill="white"/>
<path d="M10.9588 22.6033C10.9588 20.7412 10.9584 18.8791 10.9588 17.0171C10.9588 16.4971 11.2042 16.2537 11.7277 16.2537C12.583 16.2533 13.4388 16.2525 14.2942 16.2541C14.7137 16.2549 14.9611 16.4728 15.0164 16.8896C15.0284 16.9812 15.0296 17.0744 15.0296 17.1668C15.0304 20.7982 15.03 24.4296 15.03 28.0609C15.03 28.1271 15.0316 28.1936 15.0268 28.2597C14.9941 28.7099 14.7431 28.9812 14.2938 28.9888C13.4253 29.0035 12.5564 29.0047 11.6879 28.9872C11.1998 28.9776 10.9592 28.698 10.9588 28.2095C10.9584 26.3407 10.9588 24.4718 10.9588 22.6033Z" fill="white"/>
<path d="M10.3691 12.6199C10.3687 11.1845 11.5615 9.99207 12.9902 10C14.4304 10.0084 15.608 11.1912 15.6052 12.6267C15.6024 14.0489 14.4248 15.2266 12.993 15.2385C11.5711 15.2509 10.3695 14.0517 10.3691 12.6199Z" fill="white"/>
</svg>
