<svg width="61" height="13" viewBox="0 0 61 13" fill="none" xmlns="http://www.w3.org/2000/svg">
<path d="M10.0571 6.85245H9.96054L7.10335 0.798279C7.0184 0.616809 6.83307 0.500977 6.6323 0.500977H1.27698C0.987401 0.500977 0.755737 0.732641 0.755737 1.02222V12.4008C0.755737 12.6904 0.987401 12.9221 1.27698 12.9221H5.12648C5.41606 12.9221 5.64772 12.6904 5.64772 12.4008V6.51654H5.74425L8.80608 12.6363C8.89489 12.814 9.07636 12.9259 9.27327 12.9259H14.4278C14.7174 12.9259 14.9491 12.6943 14.9491 12.4047V1.02222C14.9491 0.732641 14.7174 0.500977 14.4278 0.500977H10.5783C10.2887 0.500977 10.0571 0.732641 10.0571 1.02222V6.85245V6.85245Z" fill="#626385"/>
<path d="M21.8488 7.47697H28.7215C28.8875 7.47697 29.0265 7.34183 29.0265 7.17194V6.24914C29.0265 6.08312 28.8914 5.94412 28.7215 5.94412H21.8488V4.19119H29.0342C29.3238 4.19119 29.5555 3.95953 29.5555 3.66994V1.02125C29.5555 0.731665 29.3238 0.5 29.0342 0.5H17.0803C16.7907 0.5 16.5591 0.731665 16.5591 1.02125V12.4076C16.5591 12.6894 16.7907 12.9211 17.0726 12.9211H29.1153C29.4049 12.9211 29.6365 12.6894 29.6365 12.3998V9.91331C29.6365 9.62373 29.4049 9.39206 29.1153 9.39206H21.8488V7.47697Z" fill="#626385"/>
<path d="M45.4361 5.41515C45.4361 1.10233 42.965 0.5 39.6947 0.5H31.764C31.4745 0.5 31.2428 0.731665 31.2428 1.02125V12.3998C31.2428 12.6894 31.4745 12.9211 31.764 12.9211H36.0112C36.3008 12.9211 36.5325 12.6894 36.5325 12.3998V10.2067H37.4282C37.7101 11.5736 38.8105 12.6315 40.1966 12.8632C40.3627 12.8979 40.5364 12.9211 40.7256 12.9211H44.9149C45.2045 12.9211 45.4361 12.6894 45.4361 12.3998V10.2067C45.4361 9.91717 45.2045 9.6855 44.9149 9.6855H43.2044C44.6523 9.09476 45.4361 7.87466 45.4361 5.41515ZM36.5363 4.15644H38.9225C39.5094 4.15644 39.9997 4.61205 40.0461 5.19507C40.1542 6.55417 39.7294 7.00978 38.5557 7.04839H36.5363V4.15644Z" fill="#626385"/>
<path d="M61 6.63911C61 2.12937 58.8185 0.5 54.5868 0.5H47.5712C47.2816 0.5 47.0499 0.731665 47.0499 1.02125V12.3303C47.0499 12.6585 47.3163 12.9211 47.6407 12.9211H54.5868C58.8185 12.9211 61 11.2879 61 6.78197C61 6.75881 60.9961 6.73564 60.9961 6.71247C60.9961 6.68545 61 6.66614 61 6.63911ZM53.6833 9.10634H52.2547V7.70863V4.31474H53.6833C55.2586 4.31474 55.6794 5.17576 55.6987 6.71247C55.6794 8.24532 55.2624 9.10634 53.6833 9.10634Z" fill="#626385"/>
</svg>
