<svg width="20" height="14" viewBox="0 0 20 14" fill="none" xmlns="http://www.w3.org/2000/svg">
<path fill-rule="evenodd" clip-rule="evenodd" d="M1 6.80293C1 6.47593 1.26509 6.21085 1.59209 6.21085L17.2869 6.21085C17.6139 6.21085 17.879 6.47593 17.879 6.80293C17.879 7.12993 17.6139 7.39502 17.2869 7.39502L1.59209 7.39502C1.26509 7.39502 1 7.12993 1 6.80293Z" fill="#E84E0F" stroke="#E84E0F" stroke-miterlimit="10" stroke-linecap="round"/>
<path fill-rule="evenodd" clip-rule="evenodd" d="M12.384 12.8266C12.1528 12.5954 12.1528 12.2205 12.384 11.9892L17.5706 6.80264L12.384 1.61604C12.1528 1.38482 12.1528 1.00993 12.384 0.778707C12.6152 0.547483 12.9901 0.547483 13.2213 0.778707L18.8266 6.38398C19.0578 6.6152 19.0578 6.99009 18.8266 7.22131L13.2213 12.8266C12.9901 13.0578 12.6152 13.0578 12.384 12.8266Z" fill="#E84E0F" stroke="#E84E0F" stroke-linecap="round" stroke-linejoin="round"/>
</svg>
