<svg width="60" height="60" viewBox="0 0 60 60" fill="none" xmlns="http://www.w3.org/2000/svg">
<path d="M42.1875 28.4531L23.5219 17.8125C23.2256 17.6479 22.8916 17.5634 22.5527 17.5673C22.2138 17.5711 21.8818 17.6633 21.5894 17.8346C21.297 18.0058 21.0542 18.2504 20.8851 18.5441C20.716 18.8378 20.6264 19.1704 20.625 19.5093V40.4906C20.6264 40.8295 20.716 41.1622 20.8851 41.4559C21.0542 41.7495 21.297 41.9941 21.5894 42.1654C21.8818 42.3367 22.2138 42.4288 22.5527 42.4327C22.8916 42.4365 23.2256 42.352 23.5219 42.1875L42.1875 31.5468C42.4603 31.3911 42.687 31.166 42.8448 30.8943C43.0025 30.6226 43.0856 30.3141 43.0856 30C43.0856 29.6858 43.0025 29.3773 42.8448 29.1056C42.687 28.834 42.4603 28.6088 42.1875 28.4531V28.4531Z" fill="white"/>
<path d="M30 0C24.0666 0 18.2664 1.75947 13.3329 5.05591C8.39943 8.35235 4.55426 13.0377 2.28363 18.5195C0.0129984 24.0013 -0.581101 30.0333 0.576455 35.8527C1.73401 41.6721 4.59123 47.0176 8.78681 51.2132C12.9824 55.4088 18.3279 58.266 24.1473 59.4235C29.9667 60.5811 35.9987 59.987 41.4805 57.7164C46.9623 55.4457 51.6476 51.6006 54.9441 46.6671C58.2405 41.7336 60 35.9334 60 30C60 22.0435 56.8393 14.4129 51.2132 8.78679C45.5871 3.1607 37.9565 0 30 0V0ZM30 56.25C24.8082 56.25 19.7331 54.7105 15.4163 51.8261C11.0995 48.9417 7.73497 44.842 5.74817 40.0454C3.76137 35.2489 3.24154 29.9709 4.2544 24.8789C5.26726 19.7869 7.76733 15.1096 11.4385 11.4384C15.1096 7.76732 19.7869 5.26725 24.8789 4.25439C29.9709 3.24152 35.2489 3.76136 40.0454 5.74816C44.842 7.73496 48.9417 11.0995 51.8261 15.4163C54.7105 19.7331 56.25 24.8082 56.25 30C56.25 36.9619 53.4844 43.6387 48.5616 48.5615C43.6387 53.4844 36.9619 56.25 30 56.25Z" fill="white"/>
</svg>
