<svg width="75" height="75" viewBox="0 0 75 75" fill="none" xmlns="http://www.w3.org/2000/svg">
<circle cx="37.5" cy="37.5" r="37.5" fill="#E84E0F"/>
<path d="M47.8118 36.507L29.796 26.2368C29.5101 26.078 29.1877 25.9964 28.8606 26.0001C28.5335 26.0039 28.2131 26.0928 27.9308 26.2581C27.6486 26.4234 27.4143 26.6595 27.2511 26.9429C27.0878 27.2264 27.0013 27.5475 27 27.8746V48.1254C27.0013 48.4525 27.0878 48.7736 27.2511 49.0571C27.4143 49.3405 27.6486 49.5766 27.9308 49.7419C28.2131 49.9072 28.5335 49.9961 28.8606 49.9999C29.1877 50.0036 29.5101 49.922 29.796 49.7632L47.8118 39.493C48.0751 39.3427 48.294 39.1254 48.4462 38.8632C48.5984 38.601 48.6786 38.3032 48.6786 38C48.6786 37.6968 48.5984 37.399 48.4462 37.1368C48.294 36.8746 48.0751 36.6573 47.8118 36.507V36.507Z" fill="white"/>
</svg>
