<svg width="20" height="14" viewBox="0 0 20 14" fill="none" xmlns="http://www.w3.org/2000/svg">
<path fill-rule="evenodd" clip-rule="evenodd" d="M19 6.80293C19 6.47593 18.7349 6.21085 18.4079 6.21085L2.71313 6.21085C2.38613 6.21085 2.12105 6.47593 2.12105 6.80293C2.12105 7.12993 2.38613 7.39502 2.71313 7.39502L18.4079 7.39502C18.7349 7.39502 19 7.12993 19 6.80293Z" fill="#626385" stroke="#E84E0F" stroke-miterlimit="10" stroke-linecap="round"/>
<path fill-rule="evenodd" clip-rule="evenodd" d="M7.61607 12.8266C7.8473 12.5954 7.8473 12.2205 7.61607 11.9892L2.42947 6.80264L7.61607 1.61604C7.8473 1.38482 7.8473 1.00993 7.61607 0.778707C7.38485 0.547483 7.00996 0.547483 6.77873 0.778707L1.17347 6.38398C0.942242 6.6152 0.942242 6.99009 1.17347 7.22131L6.77873 12.8266C7.00996 13.0578 7.38485 13.0578 7.61607 12.8266Z" fill="#626385" stroke="#E84E0F" stroke-linecap="round" stroke-linejoin="round"/>
</svg>
