<svg width="46" height="82" viewBox="0 0 46 82" fill="none" xmlns="http://www.w3.org/2000/svg">
<path d="M33.8372 0H11.8116C9.0646 0 6.68794 1.90133 6.07995 4.57646L2.5647 20.0414H43.0786L39.5688 4.57646C38.9608 1.90133 36.5842 0 33.8372 0Z" fill="#DA0000"/>
<path d="M39.5688 4.57648C39.1819 2.87413 38.0765 1.48682 36.6173 0.701965C36.7776 1.06123 36.9103 1.43155 36.9987 1.8295L39.0272 10.7669C39.7844 14.1108 37.2419 17.2944 33.8151 17.2944H3.18926L2.5647 20.0414H43.0786L39.5688 4.57648Z" fill="#BA0000"/>
<path d="M42.5147 72.4718H3.12842V78.1316H42.5147V72.4718Z" fill="black"/>
<path d="M35.523 81.8457H10.1258C7.52805 81.8457 5.38353 79.8117 5.24535 77.214L2.42651 23.6395H43.2223L40.4034 77.214C40.2652 79.8117 38.1207 81.8457 35.523 81.8457Z" fill="#BA0000"/>
<path d="M32.7482 81.8457H12.9002C10.8663 81.8457 9.19153 79.8117 9.08652 77.214L6.88672 23.6395H38.7617L36.5619 77.214C36.4513 79.8117 34.7766 81.8457 32.7482 81.8457Z" fill="#DA0000"/>
<path d="M2.85753 79.1097H0.392426C0.176868 79.1097 0 78.9328 0 78.7173V71.8913C0 71.6757 0.176868 71.4988 0.392426 71.4988H2.85753C3.07308 71.4988 3.24995 71.6757 3.24995 71.8913V78.7173C3.25548 78.9328 3.07861 79.1097 2.85753 79.1097Z" fill="#DA0000"/>
<path d="M4.17306 81.8458H1.24368C0.923105 81.8458 0.66333 81.586 0.66333 81.2654V69.3324C0.66333 69.0118 0.923105 68.752 1.24368 68.752H4.17306C4.49363 68.752 4.75341 69.0118 4.75341 69.3324V81.2654C4.75341 81.586 4.49363 81.8458 4.17306 81.8458Z" fill="#2D2D2D"/>
<path d="M42.7855 79.1097H45.2506C45.4662 79.1097 45.643 78.9328 45.643 78.7173V71.8913C45.643 71.6757 45.4662 71.4988 45.2506 71.4988H42.7855C42.5699 71.4988 42.3931 71.6757 42.3931 71.8913V78.7173C42.3931 78.9328 42.5699 79.1097 42.7855 79.1097Z" fill="#DA0000"/>
<path d="M41.47 81.8458H44.3994C44.7199 81.8458 44.9797 81.586 44.9797 81.2654V69.3324C44.9797 69.0118 44.7199 68.752 44.3994 68.752H41.47C41.1494 68.752 40.8896 69.0118 40.8896 69.3324V81.2654C40.8896 81.586 41.1494 81.8458 41.47 81.8458Z" fill="#2D2D2D"/>
<path d="M45.0018 23.6451H0.641113V20.9533C0.641113 19.8369 1.54756 18.9304 2.66404 18.9304H42.9734C44.0899 18.9304 44.9963 19.8369 44.9963 20.9533V23.6451H45.0018Z" fill="#FF0000"/>
<path d="M19.8645 32.5989H19.7871C18.2672 32.5989 16.3879 36.0091 16.0508 36.6392L20.1464 38.9606C20.4006 38.4632 21.4397 36.4789 22.6944 34.8153C21.8598 33.6435 20.8373 32.5989 19.8645 32.5989Z" fill="white"/>
<path d="M24.7671 37.916L24.8058 38.0044L23.6948 38.7672H28.1939L30.0455 35.0916L28.9345 35.5448L28.8903 35.4453C28.8793 35.4177 27.5472 32.5989 25.8891 32.5989H20.7544C22.7939 33.6269 24.6787 37.717 24.7671 37.916Z" fill="white"/>
<path d="M25.9553 46.1569L25.8558 46.1459L25.7564 44.8028L23.4902 48.6884L25.7342 52.1428L25.9001 50.9545L26.0106 50.9655C26.0438 50.9711 29.1445 51.2419 29.9846 49.8104L32.5713 45.3776C30.6534 46.6157 26.1709 46.1791 25.9553 46.1569Z" fill="white"/>
<path d="M31.4549 39.2757L27.387 41.6413C27.691 42.1111 28.8793 44.0124 29.6807 45.9304C31.1122 45.7922 32.5272 45.4384 33.0191 44.6038L33.0578 44.5375C33.8261 43.2276 31.8308 39.8837 31.4549 39.2757Z" fill="white"/>
<path d="M17.7919 42.9898L17.8472 42.9069L19.0687 43.4762L16.7859 39.6017L12.928 40.0604L13.63 40.591L13.5692 40.685C13.5526 40.7126 11.795 43.2883 12.6406 44.7143L15.2439 49.136C15.1002 46.8643 17.6703 43.1667 17.7919 42.9898Z" fill="white"/>
<path d="M16.1671 46.3503C15.5867 47.6657 15.2053 49.0752 15.6973 49.9153L15.7359 49.9816C16.5042 51.2915 20.4008 51.181 21.1138 51.1534L21.0309 46.4442C20.4727 46.4774 18.2342 46.5824 16.1671 46.3503Z" fill="white"/>
<path d="M22.8213 15.686C26.5332 15.686 29.5423 12.6769 29.5423 8.96501C29.5423 5.25311 26.5332 2.24402 22.8213 2.24402C19.1094 2.24402 16.1003 5.25311 16.1003 8.96501C16.1003 12.6769 19.1094 15.686 22.8213 15.686Z" fill="#510303"/>
</svg>
