<svg width="46" height="82" viewBox="0 0 46 82" fill="none" xmlns="http://www.w3.org/2000/svg">
<path d="M33.8317 0H11.8061C9.05907 0 6.68241 1.90133 6.07443 4.57646L2.5647 20.0414H43.0785L39.5688 4.57646C38.9608 1.90133 36.5786 0 33.8317 0Z" fill="#038C03"/>
<path d="M42.5147 72.4718H3.12842V78.1316H42.5147V72.4718Z" fill="black"/>
<path d="M35.5173 81.8457H10.1202C7.52243 81.8457 5.37792 79.8117 5.23974 77.214L2.4209 23.6395H43.2166L40.3978 77.214C40.2651 79.8117 38.1206 81.8457 35.5173 81.8457Z" fill="#037703"/>
<path d="M32.7428 81.8457H12.8949C10.8609 81.8457 9.18615 79.8117 9.08113 77.214L6.88135 23.6395H38.7563L36.5565 77.214C36.4515 79.8117 34.7768 81.8457 32.7428 81.8457Z" fill="#038C03"/>
<path d="M2.85753 79.1097H0.392421C0.176863 79.1097 0 78.9328 0 78.7173V71.8913C0 71.6757 0.176863 71.4988 0.392421 71.4988H2.85753C3.07309 71.4988 3.24995 71.6757 3.24995 71.8913V78.7173C3.24995 78.9328 3.07309 79.1097 2.85753 79.1097Z" fill="#038C03"/>
<path d="M4.17306 81.8458H1.24367C0.923098 81.8458 0.66333 81.586 0.66333 81.2654V69.3324C0.66333 69.0118 0.923098 68.752 1.24367 68.752H4.17306C4.49363 68.752 4.7534 69.0118 4.7534 69.3324V81.2654C4.74788 81.586 4.48811 81.8458 4.17306 81.8458Z" fill="#2D2D2D"/>
<path d="M42.7801 79.1097H45.2452C45.4608 79.1097 45.6376 78.9328 45.6376 78.7173V71.8913C45.6376 71.6757 45.4608 71.4988 45.2452 71.4988H42.7801C42.5646 71.4988 42.3877 71.6757 42.3877 71.8913V78.7173C42.3877 78.9328 42.5646 79.1097 42.7801 79.1097Z" fill="#038C03"/>
<path d="M41.47 81.8458H44.3994C44.72 81.8458 44.9797 81.586 44.9797 81.2654V69.3324C44.9797 69.0118 44.72 68.752 44.3994 68.752H41.47C41.1494 68.752 40.8896 69.0118 40.8896 69.3324V81.2654C40.8896 81.586 41.1494 81.8458 41.47 81.8458Z" fill="#2D2D2D"/>
<path d="M19.8647 32.5989H19.7874C18.2674 32.5989 16.3882 36.0091 16.051 36.6392L20.1466 38.9606C20.4009 38.4632 21.44 36.4789 22.6946 34.8153C21.8545 33.6435 20.832 32.5989 19.8647 32.5989Z" fill="white"/>
<path d="M24.7617 37.916L24.8004 38.0044L23.6895 38.7672H28.1885L30.0401 35.0916L28.9292 35.5448L28.885 35.4453C28.8739 35.4177 27.5419 32.5989 25.8837 32.5989H20.749C22.7941 33.6269 24.6733 37.717 24.7617 37.916Z" fill="white"/>
<path d="M25.9501 46.1569L25.8506 46.1458L25.7566 44.7972L23.4905 48.6828L25.7345 52.1372L25.9003 50.9489L26.0108 50.9599C26.044 50.9655 29.1447 51.2363 29.9849 49.8048L32.5715 45.372C30.6536 46.6156 26.1711 46.179 25.9501 46.1569Z" fill="white"/>
<path d="M31.4552 39.2757L27.3872 41.6413C27.6912 42.1111 28.8795 44.0124 29.681 45.9304C31.1125 45.7922 32.5274 45.4384 33.0194 44.6038L33.058 44.5375C33.8208 43.2276 31.8255 39.8837 31.4552 39.2757Z" fill="white"/>
<path d="M17.7921 42.9898L17.8474 42.9069L19.0689 43.4762L16.7862 39.6017L12.9283 40.0604L13.6302 40.591L13.5694 40.685C13.5528 40.7126 11.7952 43.2883 12.6408 44.7143L15.2441 49.136C15.0949 46.8643 17.665 43.1667 17.7921 42.9898Z" fill="white"/>
<path d="M16.1673 46.3503C15.587 47.6657 15.2056 49.0752 15.6975 49.9153L15.7362 49.9816C16.5045 51.2915 20.4011 51.181 21.1141 51.1534L21.0312 46.4442C20.4674 46.4774 18.2345 46.5824 16.1673 46.3503Z" fill="white"/>
<path d="M22.8216 15.686C26.5335 15.686 29.5426 12.6769 29.5426 8.96501C29.5426 5.25311 26.5335 2.24402 22.8216 2.24402C19.1097 2.24402 16.1006 5.25311 16.1006 8.96501C16.1006 12.6769 19.1097 15.686 22.8216 15.686Z" fill="#024402"/>
<path d="M39.5687 4.57648C39.1818 2.87413 38.0764 1.48682 36.6172 0.701965C36.7775 1.06123 36.9102 1.43155 36.9986 1.8295L39.0271 10.7669C39.7843 14.1108 37.2418 17.2944 33.815 17.2944H3.18365L2.55908 20.0414H43.0729L39.5687 4.57648Z" fill="#037703"/>
<path d="M44.9965 23.6451H0.635742V20.9533C0.635742 19.8369 1.54219 18.9304 2.65867 18.9304H42.968C44.0845 18.9304 44.9909 19.8369 44.9909 20.9533V23.6451H44.9965Z" fill="#079E07"/>
</svg>
