<svg width="46" height="82" viewBox="0 0 46 82" fill="none" xmlns="http://www.w3.org/2000/svg">
<path d="M33.8317 0H11.8061C9.05907 0 6.6824 1.90133 6.07442 4.57646L2.5647 20.0414H43.0785L39.5688 4.57646C38.9608 1.90133 36.5787 0 33.8317 0Z" fill="#FFBC00"/>
<path d="M42.5147 72.4718H3.12842V78.1316H42.5147V72.4718Z" fill="black"/>
<path d="M35.5173 81.8457H10.1202C7.52244 81.8457 5.37792 79.8117 5.23974 77.214L2.4209 23.6395H43.2166L40.3978 77.214C40.2651 79.8117 38.1206 81.8457 35.5173 81.8457Z" fill="#EAA700"/>
<path d="M32.7428 81.8457H12.8949C10.8609 81.8457 9.18616 79.8117 9.08114 77.214L6.88135 23.6395H38.7563L36.5565 77.214C36.4515 79.8117 34.7712 81.8457 32.7428 81.8457Z" fill="#FFBC00"/>
<path d="M2.85752 79.1097H0.392421C0.176863 79.1097 0 78.9328 0 78.7173V71.8913C0 71.6757 0.176863 71.4988 0.392421 71.4988H2.85752C3.07308 71.4988 3.24995 71.6757 3.24995 71.8913V78.7173C3.24995 78.9328 3.07308 79.1097 2.85752 79.1097Z" fill="#FFBC00"/>
<path d="M4.16744 81.8458H1.23806C0.917483 81.8458 0.657715 81.586 0.657715 81.2654V69.3324C0.657715 69.0118 0.917483 68.752 1.23806 68.752H4.16744C4.48801 68.752 4.74779 69.0118 4.74779 69.3324V81.2654C4.74779 81.586 4.48801 81.8458 4.16744 81.8458Z" fill="#2D2D2D"/>
<path d="M42.7799 79.1097H45.245C45.4605 79.1097 45.6374 78.9328 45.6374 78.7173V71.8913C45.6374 71.6757 45.4605 71.4988 45.245 71.4988H42.7799C42.5643 71.4988 42.3875 71.6757 42.3875 71.8913V78.7173C42.3875 78.9328 42.5643 79.1097 42.7799 79.1097Z" fill="#FFBC00"/>
<path d="M41.47 81.8458H44.3994C44.72 81.8458 44.9797 81.586 44.9797 81.2654V69.3324C44.9797 69.0118 44.72 68.752 44.3994 68.752H41.47C41.1494 68.752 40.8896 69.0118 40.8896 69.3324V81.2654C40.8896 81.586 41.1494 81.8458 41.47 81.8458Z" fill="#2D2D2D"/>
<path d="M19.8645 32.5989H19.7871C18.2672 32.5989 16.3879 36.0091 16.0508 36.6392L20.1464 38.9606C20.4006 38.4632 21.4397 36.4789 22.6944 34.8153C21.8543 33.6435 20.8317 32.5989 19.8645 32.5989Z" fill="white"/>
<path d="M24.7616 37.916L24.8003 38.0044L23.6894 38.7672H28.1885L30.04 35.0916L28.9291 35.5448L28.8793 35.4453C28.8683 35.4177 27.5363 32.5989 25.8781 32.5989H20.7434C22.794 33.6269 24.6732 37.717 24.7616 37.916Z" fill="white"/>
<path d="M25.95 46.1569L25.8505 46.1459L25.751 44.8028L23.4849 48.6884L25.7289 52.1428L25.8947 50.9545L26.0052 50.9655C26.0384 50.9711 29.1391 51.2419 29.9792 49.8104L32.5659 45.3776C30.648 46.6157 26.1655 46.1791 25.95 46.1569Z" fill="white"/>
<path d="M31.4493 39.2757L27.3813 41.6413C27.6853 42.1111 28.8737 44.0124 29.6751 45.9304C31.1066 45.7922 32.5216 45.4384 33.0135 44.6038L33.0522 44.5375C33.8205 43.2276 31.8252 39.8837 31.4493 39.2757Z" fill="white"/>
<path d="M17.7919 42.9898L17.8472 42.9069L19.0687 43.4762L16.7859 39.6017L12.928 40.0604L13.63 40.591L13.5692 40.685C13.5526 40.7126 11.795 43.2883 12.6406 44.7143L15.2439 49.136C15.0947 46.8643 17.6648 43.1667 17.7919 42.9898Z" fill="white"/>
<path d="M16.1612 46.3503C15.5809 47.6657 15.1995 49.0752 15.6914 49.9153L15.7301 49.9816C16.4984 51.2915 20.395 51.181 21.108 51.1534L21.0251 46.4442C20.4668 46.4774 18.2339 46.5824 16.1612 46.3503Z" fill="white"/>
<path d="M22.8213 15.686C26.5332 15.686 29.5423 12.6769 29.5423 8.96501C29.5423 5.25311 26.5332 2.24402 22.8213 2.24402C19.1094 2.24402 16.1003 5.25311 16.1003 8.96501C16.1003 12.6769 19.1094 15.686 22.8213 15.686Z" fill="#A06E00"/>
<path d="M39.5687 4.57648C39.1818 2.87413 38.0764 1.48682 36.6172 0.701965C36.7775 1.06123 36.9102 1.43155 36.9986 1.8295L39.0271 10.7669C39.7843 14.1108 37.2418 17.2944 33.815 17.2944H3.18365L2.55908 20.0414H43.0729L39.5687 4.57648Z" fill="#EAA700"/>
<path d="M44.9962 23.6451H0.635498V20.9533C0.635498 19.8369 1.54195 18.9304 2.65843 18.9304H42.9678C44.0843 18.9304 44.9907 19.8369 44.9907 20.9533V23.6451H44.9962Z" fill="#FFD035"/>
</svg>
