<svg width="46" height="82" viewBox="0 0 46 82" fill="none" xmlns="http://www.w3.org/2000/svg">
<path d="M33.8314 0H11.8058C9.05883 0 6.68215 1.90133 6.07417 4.57646L2.56445 20.0414H43.0783L39.5686 4.57646C38.9606 1.90133 36.5784 0 33.8314 0Z" fill="#027CBF"/>
<path d="M42.5145 72.4718H3.12817V78.1316H42.5145V72.4718Z" fill="black"/>
<path d="M35.5171 81.8457H10.1199C7.52219 81.8457 5.37767 79.8117 5.23949 77.214L2.42065 23.6395H43.2164L40.3975 77.214C40.2649 79.8117 38.1204 81.8457 35.5171 81.8457Z" fill="#035691"/>
<path d="M32.7425 81.8457H12.8946C10.8606 81.8457 9.18591 79.8117 9.08089 77.214L6.8811 23.6395H38.756L36.5563 77.214C36.4512 79.8117 34.7765 81.8457 32.7425 81.8457Z" fill="#0068B0"/>
<path d="M2.85729 79.1097H0.392177C0.176619 79.1097 -0.000244141 78.9328 -0.000244141 78.7173V71.8913C-0.000244141 71.6757 0.176619 71.4988 0.392177 71.4988H2.85729C3.07285 71.4988 3.24971 71.6757 3.24971 71.8913V78.7173C3.24971 78.9328 3.07285 79.1097 2.85729 79.1097Z" fill="#0068B0"/>
<path d="M4.1728 81.8458H1.24343C0.922854 81.8458 0.663086 81.586 0.663086 81.2654V69.3324C0.663086 69.0118 0.922854 68.752 1.24343 68.752H4.1728C4.49337 68.752 4.75316 69.0118 4.75316 69.3324V81.2654C4.75316 81.586 4.49337 81.8458 4.1728 81.8458Z" fill="#2D2D2D"/>
<path d="M42.7851 79.1097H45.2503C45.4658 79.1097 45.6427 78.9328 45.6427 78.7173V71.8913C45.6427 71.6757 45.4658 71.4988 45.2503 71.4988H42.7851C42.5696 71.4988 42.3927 71.6757 42.3927 71.8913V78.7173C42.3872 78.9328 42.5641 79.1097 42.7851 79.1097Z" fill="#0068B0"/>
<path d="M41.4697 81.8458H44.3991C44.7197 81.8458 44.9795 81.586 44.9795 81.2654V69.3324C44.9795 69.0118 44.7197 68.752 44.3991 68.752H41.4697C41.1492 68.752 40.8894 69.0118 40.8894 69.3324V81.2654C40.8894 81.586 41.1492 81.8458 41.4697 81.8458Z" fill="#2D2D2D"/>
<path d="M19.8645 32.5989H19.7871C18.2671 32.5989 16.3879 36.0091 16.0508 36.6392L20.1464 38.9606C20.4006 38.4632 21.4397 36.4789 22.6944 34.8153C21.8543 33.6435 20.8317 32.5989 19.8645 32.5989Z" fill="white"/>
<path d="M24.7615 37.916L24.8002 38.0044L23.6892 38.7672H28.1883L30.0399 35.0916L28.9289 35.5448L28.8847 35.4453C28.8737 35.4177 27.5416 32.5989 25.8835 32.5989H20.7488C22.7938 33.6269 24.673 37.717 24.7615 37.916Z" fill="white"/>
<path d="M25.9553 46.1569L25.8558 46.1459L25.7564 44.8028L23.4902 48.6884L25.7342 52.1428L25.9001 50.9545L26.0106 50.9655C26.0438 50.9711 29.1445 51.2419 29.9846 49.8104L32.5713 45.3776C30.6534 46.6157 26.1709 46.1791 25.9553 46.1569Z" fill="white"/>
<path d="M31.4549 39.2757L27.387 41.6413C27.691 42.1111 28.8793 44.0124 29.6807 45.9304C31.1123 45.7922 32.5272 45.4384 33.0191 44.6038L33.0578 44.5375C33.8205 43.2276 31.8308 39.8837 31.4549 39.2757Z" fill="white"/>
<path d="M17.7919 42.9898L17.8472 42.9069L19.0687 43.4762L16.7859 39.6017L12.928 40.0604L13.63 40.591L13.5692 40.685C13.5526 40.7126 11.795 43.2883 12.6406 44.7143L15.2439 49.136C15.0946 46.8643 17.6648 43.1667 17.7919 42.9898Z" fill="white"/>
<path d="M16.1671 46.3503C15.5867 47.6657 15.2053 49.0752 15.6973 49.9153L15.7359 49.9816C16.5042 51.2915 20.4009 51.181 21.1139 51.1534L21.0309 46.4442C20.4672 46.4774 18.2342 46.5824 16.1671 46.3503Z" fill="white"/>
<path d="M22.8211 15.686C26.533 15.686 29.5421 12.6769 29.5421 8.96501C29.5421 5.25311 26.533 2.24402 22.8211 2.24402C19.1092 2.24402 16.1001 5.25311 16.1001 8.96501C16.1001 12.6769 19.1092 15.686 22.8211 15.686Z" fill="#013B66"/>
<path d="M39.5686 4.57648C39.1817 2.87413 38.0762 1.48682 36.6171 0.701965C36.7774 1.06123 36.91 1.43155 36.9985 1.8295L39.0269 10.7669C39.7841 14.1108 37.2416 17.2944 33.8148 17.2944H3.189L2.56445 20.0414H43.0783L39.5686 4.57648Z" fill="#035691"/>
<path d="M45.0016 23.6451H0.640869V20.9533C0.640869 19.8369 1.54732 18.9304 2.6638 18.9304H42.9732C44.0896 18.9304 44.9961 19.8369 44.9961 20.9533V23.6451H45.0016Z" fill="#008BCD"/>
</svg>
