<svg width="46" height="82" viewBox="0 0 46 82" fill="none" xmlns="http://www.w3.org/2000/svg">
<path d="M33.837 0H11.8114C9.06446 0 6.68224 1.90133 6.07978 4.57646L2.57007 20.0414H43.0839L39.5742 4.57646C38.9607 1.90133 36.5785 0 33.837 0Z" fill="#464849"/>
<path d="M42.5147 72.4718H3.12842V78.1316H42.5147V72.4718Z" fill="black"/>
<path d="M35.523 81.8457H10.1258C7.52805 81.8457 5.38355 79.8117 5.24537 77.214L2.42651 23.6395H43.2223L40.4034 77.214C40.2653 79.8117 38.1207 81.8457 35.523 81.8457Z" fill="#363738"/>
<path d="M32.7426 81.8457H12.9002C10.8663 81.8457 9.19152 79.8117 9.08651 77.214L6.88672 23.6395H38.7617L36.5619 77.214C36.4513 79.8117 34.7766 81.8457 32.7426 81.8457Z" fill="#464849"/>
<path d="M2.85755 79.1097H0.392438C0.17688 79.1097 0 78.9328 0 78.7173V71.8913C0 71.6757 0.17688 71.4988 0.392438 71.4988H2.85755C3.07311 71.4988 3.24995 71.6757 3.24995 71.8913V78.7173C3.25548 78.9328 3.07863 79.1097 2.85755 79.1097Z" fill="#57595B"/>
<path d="M4.17308 81.8458H1.24367C0.923098 81.8458 0.66333 81.586 0.66333 81.2654V69.3324C0.66333 69.0118 0.923098 68.752 1.24367 68.752H4.17308C4.49365 68.752 4.75342 69.0118 4.75342 69.3324V81.2654C4.75342 81.586 4.49365 81.8458 4.17308 81.8458Z" fill="#2D2D2D"/>
<path d="M42.7856 79.1097H45.2507C45.4663 79.1097 45.6431 78.9328 45.6431 78.7173V71.8913C45.6431 71.6757 45.4663 71.4988 45.2507 71.4988H42.7856C42.5701 71.4988 42.3932 71.6757 42.3932 71.8913V78.7173C42.3877 78.9328 42.5645 79.1097 42.7856 79.1097Z" fill="#57595B"/>
<path d="M41.47 81.8458H44.3994C44.7199 81.8458 44.9797 81.586 44.9797 81.2654V69.3324C44.9797 69.0118 44.7199 68.752 44.3994 68.752H41.47C41.1494 68.752 40.8896 69.0118 40.8896 69.3324V81.2654C40.8896 81.586 41.1494 81.8458 41.47 81.8458Z" fill="#2D2D2D"/>
<path d="M19.8645 32.5989H19.7871C18.2672 32.5989 16.3879 36.0091 16.0508 36.6392L20.1464 38.9606C20.4006 38.4632 21.4397 36.4789 22.6944 34.8153C21.8542 33.6435 20.8373 32.5989 19.8645 32.5989Z" fill="white"/>
<path d="M24.7671 37.916L24.8058 38.0044L23.6948 38.7672H28.1939L30.0455 35.0916L28.9345 35.5448L28.8903 35.4453C28.8793 35.4177 27.5472 32.5989 25.8891 32.5989H20.7544C22.7939 33.6269 24.6731 37.717 24.7671 37.916Z" fill="white"/>
<path d="M25.9553 46.1569L25.8559 46.1459L25.7564 44.8028L23.4902 48.6884L25.7342 52.1428L25.9001 50.9545L26.0106 50.9655C26.0438 50.9711 29.1445 51.2419 29.9846 49.8104L32.5713 45.3776C30.6534 46.6157 26.1709 46.1791 25.9553 46.1569Z" fill="white"/>
<path d="M31.4549 39.2757L27.387 41.6413C27.691 42.1111 28.8793 44.0124 29.6807 45.9304C31.1122 45.7922 32.5272 45.4384 33.0191 44.6038L33.0578 44.5375C33.826 43.2276 31.8308 39.8837 31.4549 39.2757Z" fill="white"/>
<path d="M17.7919 42.9898L17.8471 42.9069L19.0686 43.4762L16.7859 39.6017L12.928 40.0604L13.6299 40.591L13.5692 40.685C13.5526 40.7126 11.795 43.2883 12.6406 44.7143L15.2439 49.136C15.0946 46.8643 17.6647 43.1667 17.7919 42.9898Z" fill="white"/>
<path d="M16.1671 46.3503C15.5867 47.6657 15.2053 49.0752 15.6973 49.9153L15.736 49.9816C16.5042 51.2915 20.4008 51.181 21.1138 51.1534L21.031 46.4442C20.4727 46.4774 18.2342 46.5824 16.1671 46.3503Z" fill="white"/>
<path d="M22.8216 15.686C26.5335 15.686 29.5426 12.6769 29.5426 8.96501C29.5426 5.25311 26.5335 2.24402 22.8216 2.24402C19.1097 2.24402 16.1006 5.25311 16.1006 8.96501C16.1006 12.6769 19.1097 15.686 22.8216 15.686Z" fill="#141414"/>
<path d="M39.5688 4.57648C39.1819 2.87413 38.0764 1.48682 36.6172 0.701965C36.7775 1.06123 36.9102 1.43155 36.9986 1.8295L39.0271 10.7669C39.7843 14.1108 37.2418 17.2944 33.815 17.2944H3.18365L2.55908 20.0414H43.073L39.5688 4.57648Z" fill="#363738"/>
<path d="M45.0021 23.6451H0.641357V20.9533C0.641357 19.8369 1.54779 18.9304 2.66427 18.9304H42.9736C44.0901 18.9304 44.9966 19.8369 44.9966 20.9533V23.6451H45.0021Z" fill="#57595B"/>
</svg>
