<svg width="40" height="40" viewBox="0 0 40 40" fill="none" xmlns="http://www.w3.org/2000/svg">
<path d="M20 40C31.0457 40 40 31.0457 40 20C40 8.9543 31.0457 0 20 0C8.9543 0 0 8.9543 0 20C0 31.0457 8.9543 40 20 40Z" fill="#626385"/>
<path d="M28.3564 14.4001C27.6452 13.6446 26.8452 13.6446 26.4897 13.6001C23.9119 13.4224 20.0008 13.4224 20.0008 13.4224C20.0008 13.4224 16.0897 13.4224 13.5119 13.6001C13.1564 13.6446 12.3564 13.6446 11.6452 14.4001C11.0675 14.9779 10.8897 16.2668 10.8897 16.2668C10.8897 16.2668 10.7119 17.7779 10.7119 19.289V20.7113C10.7119 22.2224 10.8897 23.7335 10.8897 23.7335C10.8897 23.7335 11.0675 25.0224 11.6452 25.6001C12.3564 26.3557 13.2897 26.3113 13.6897 26.4001C15.1564 26.5335 20.0008 26.5779 20.0008 26.5779C20.0008 26.5779 23.9119 26.5779 26.4897 26.4001C26.8452 26.3557 27.6452 26.3557 28.3564 25.6001C28.9341 25.0224 29.1119 23.7335 29.1119 23.7335C29.1119 23.7335 29.2897 22.2224 29.2897 20.7113V19.289C29.2897 17.7779 29.1119 16.2668 29.1119 16.2668C29.1119 16.2668 28.9341 14.9779 28.3564 14.4001ZM18.0897 22.4446V17.2001L23.1119 19.8224L18.0897 22.4446Z" fill="white"/>
</svg>
